<?xml version="1.0" encoding="utf-8"?>
<!-- Generator: Adobe Illustrator 26.0.2, SVG Export Plug-In . SVG Version: 6.00 Build 0)  -->
<svg version="1.1" id="Layer_1" xmlns="http://www.w3.org/2000/svg" xmlns:xlink="http://www.w3.org/1999/xlink" x="0px" y="0px"
	 viewBox="0 0 40 40" style="enable-background:new 0 0 40 40;" xml:space="preserve">
<style type="text/css">
	.st0{fill:#FFFFFF;}
</style>
<g>
	<g>
		<path class="st0" d="M19.9,0.1c5.6,0,10.3,1.9,14.2,5.8c3.9,3.9,5.8,8.6,5.8,14.2c0,5.6-1.9,10.3-5.7,14c-4,4-8.8,6-14.3,6
			c-5.4,0-10.1-2-14.1-5.9C2,30.2,0,25.5,0,20C0,14.6,2,9.8,5.9,5.8C9.7,2,14.4,0.1,19.9,0.1z M20,3.7c-4.5,0-8.4,1.6-11.5,4.8
			C5.2,11.8,3.6,15.6,3.6,20c0,4.4,1.6,8.3,4.8,11.5c3.2,3.2,7.1,4.9,11.6,4.9c4.4,0,8.3-1.6,11.6-4.9c3.1-3,4.7-6.8,4.7-11.4
			c0-4.5-1.6-8.4-4.8-11.6C28.4,5.2,24.5,3.7,20,3.7z M25.4,15.1v8.2h-2.3v9.7h-6.2v-9.7h-2.3v-8.2c0-0.4,0.1-0.7,0.4-0.9
			c0.3-0.2,0.6-0.4,0.9-0.4h8.2c0.3,0,0.6,0.1,0.9,0.4C25.2,14.4,25.4,14.7,25.4,15.1z M17.2,9.9c0-1.9,0.9-2.8,2.8-2.8
			s2.8,0.9,2.8,2.8c0,1.9-0.9,2.8-2.8,2.8S17.2,11.8,17.2,9.9z"/>
	</g>
</g>
</svg>
