<?xml version="1.0" encoding="UTF-8"?>
<svg xmlns="http://www.w3.org/2000/svg" version="1.1" viewBox="0 0 362 137.6">
  <defs>
    <style>
      .cls-1 {
        fill: #3da639;
      }

      .cls-2 {
        fill: #fff;
      }

      .cls-3 {
        fill: #1e531d;
      }
    </style>
  </defs>
  <!-- Generator: Adobe Illustrator 28.6.0, SVG Export Plug-In . SVG Version: 1.2.0 Build 709)  -->
  <g>
    <g id="Layer_1">
      <path class="cls-2" d="M263.2,102.6c-.5.5-.9.8-1.3,1.3-1.7,1.9-6.2,2.3-8.5.6l-.2-.1c-2.6-1.8-3.1-8,1-9.9,1.5-.7,3.2-1.1,4.9-1.1,1-.1,2.1-.1,3.1-.1.5,0,.7-.2.7-.7,0-.4,0-.8-.1-1.3-.2-1.7-1.2-2.6-2.9-2.7-1.6,0-3.2.3-4.7,1.1q-.9.4-1.2-.5c-.2-.5-.4-.9-.6-1.4-.3-.8-.3-.9.5-1.2,2.1-1,4.5-1.4,6.8-1.3.7,0,1.5.2,2.2.4,2.3.7,3.6,2.4,3.9,4.8.1.6.1,1.2.1,1.7v11.9q0,1.1-1.1,1.1c-2.2,0-1.7.3-2.3-1.7-.1-.2-.2-.5-.3-.9ZM261.2,96c-.7,0-1.3.1-1.9.2-.9.1-1.8.3-2.6.8-.5.4-.9,1-1.1,1.6-.2.6-.2,1.3,0,2,.3,1.1,1.2,1.7,2.6,1.7,2.9.1,4.7-1.7,4.8-4.6-.1-2.1.1-1.7-1.8-1.7Z"></path>
      <path class="cls-2" d="M322.2,96.4h-5.2q-.9,0-.8.9c.3,3.1,2.2,4.8,5.2,4.8,1.7,0,3.4-.3,4.9-1q1-.4,1,.7v1.5c0,.2,0,.5-.1.7s-.3.4-.6.4c-3,1.1-6.1,1.4-9.2.4-1-.3-1.9-.9-2.7-1.6-.8-.7-1.4-1.6-1.8-2.6-.7-1.7-1.1-3.6-1.1-5.5s.5-3.7,1.2-5.4c2-4.4,7.8-5.9,11.8-3.2,2.1,1.4,3,3.5,3.2,5.8.1,1.1.1,2.2.1,3.3,0,.5-.2.7-.7.7-1.6.1-3.4.1-5.2.1ZM320.4,93.3h2.9q1.2,0,1.1-1.2c0-.2-.1-.4-.1-.6-.5-1.8-1.6-2.8-3.2-3-1.9-.2-3.4.6-4.1,2.3-.2.5-.4,1-.5,1.5-.2.8-.1.9.7.9.9.1,2,.1,3.2.1h0Z"></path>
      <path class="cls-2" d="M202.4,88q.2-.1.3-.1c2-2.5,4.7-2.9,7.6-2.4,2.2.4,3.6,1.8,4.3,4.1.3,1,.4,2,.3,3v11.7q0,1-1,1h-2q-1,0-1-1v-10.8c0-.8-.1-1.5-.3-2.3-.1-.6-.5-1.2-.9-1.6-.5-.4-1.1-.6-1.7-.7-.6-.1-1.2,0-1.7,0-.7.1-1.3.4-1.8.8s-.9,1-1.1,1.6c-.5,1.4-.7,2.8-.6,4.2v8.7q0,1-1,1h-2.3c-.5,0-.7-.2-.7-.7v-17.9q0-1,1-1c.7,0,1.5-.3,2,.1s.3,1.2.5,1.8c0,.2.1.3.1.5Z"></path>
      <path class="cls-2" d="M292.2,85.6h3.4c.6,0,.9.2,1,.8,1,3.2,2.1,6.3,3.1,9.5.5,1.6,1,3.2,1.5,4.8.2.1.2-.1.2-.2,1.2-4.8,3-9.5,4.5-14.2.2-.6.4-.8,1-.8,1.1.1,2.2-.1,3.3.1-.1.7-.3,1.5-.6,2.1-1.9,5.4-3.9,10.8-5.9,16.3q-.4,1.1-1.5,1.1h-2.2c-.9,0-1,0-1.3-.9-.8-2.1-1.5-4.3-2.3-6.4-1.3-3.7-2.6-7.3-3.9-11,0-.3-.1-.6-.3-1.2Z"></path>
      <path class="cls-2" d="M276.6,85.5c.3.2.6.2,1,.2h3.1q1.1,0,1.1,1.1c0,.6.3,1.4-.1,1.9s-1.3.2-2,.2h-2.4c-.5,0-.7.2-.7.7v9.9c0,1.9.9,2.6,2.9,2.6.7,0,1.3-.2,1.9-.3.3-.1.5,0,.5.4v2.2c0,.2,0,.3-.1.4s-.2.2-.4.2c-1.8.6-3.7.7-5.5.2-1.6-.5-2.6-1.7-3.1-3.3-.2-.8-.3-1.7-.3-2.5v-9.6q0-.9-.9-.9h-.3c-1.3,0-1.4-.1-1.3-1.5,0-.2,0-.3.1-.4s.2-.2.3-.3c.5-.3,1-.6,1.5-.8.2-.1.5-.3.6-.5.2-.2.3-.5.4-.7.3-.9.6-1.8.9-2.7,0-.2.1-.3.3-.4.1-.1.3-.2.5-.2,1.9-.2,2-.1,2,1.8v2.3Z"></path>
      <path class="cls-2" d="M230.1,94.9v-5.2q0-.8-.8-.9h-.5q-1.3,0-1.2-1.3c0-.2,0-.4.1-.5.1-.2.2-.3.4-.4.1,0,.1-.1.2-.1,1.7-.6,2.4-1.8,2.7-3.5v-.1q.6-1.8,2.4-1.6c.5,0,.7.2.7.7v2.9c0,.5.1.8.7.7h3.6q.9,0,.9.9c0,.8.3,1.7-.2,2.2s-1.4.1-2.1.2h-1.6q-1.3,0-1.3,1.2v9.7c.2,1.5,1,2.2,2.5,2.3.8,0,1.5-.1,2.3-.3.4-.1.6.1.6.5v1.2q0,1.6-1.6,1.9c-1.1.3-2.3.3-3.4.2-1-.1-2-.5-2.7-1.2-.8-.7-1.3-1.6-1.5-2.6-.2-.7-.3-1.4-.3-2.2.1-1.6.1-3.1.1-4.7h0Z"></path>
      <path class="cls-2" d="M224.2,95.4v8.8c0,.9,0,1-1,1h-2.2q-.9,0-.9-.9v-18c0-.5.2-.6.6-.6h2.7c.6,0,.8.2.8.8,0,2.9,0,5.9,0,8.9Z"></path>
      <path class="cls-2" d="M189.2,95.4v-8.9q0-.9.9-.9h2.5c.4,0,.7.2.6.6v18.4c0,.5-.2.6-.6.6h-2.5q-.8,0-.8-.9v-6.2l-.1-2.7Z"></path>
      <path class="cls-2" d="M247,95.3v8.9q0,1-1,1h-2.1q-1,0-1-1.1v-17.8c0-.4.2-.6.6-.6h2.7c.6,0,.8.3.8.8v8.8Z"></path>
      <path class="cls-2" d="M289.5,95.3v8.9q0,1-.9,1h-2.1q-1,0-1-.9v-18.1c0-.3.1-.5.5-.5h3c.5,0,.5.3.5.7v8.9Z"></path>
      <path class="cls-2" d="M247.3,80.5c0,1.5-.8,2.4-2.2,2.4s-2.2-.8-2.2-2.2c0-1.5.8-2.4,2.2-2.4,1.3-.1,2.1.7,2.2,2.2Z"></path>
      <path class="cls-2" d="M193.5,80.5c0,1.4-.9,2.4-2.3,2.3-1.4,0-2.2-.9-2.2-2.3,0-1.5.8-2.4,2.2-2.4,1.4.1,2.3,1,2.3,2.4Z"></path>
      <path class="cls-2" d="M224.5,80.5c0,1.4-.8,2.4-2.2,2.4s-2.3-.8-2.3-2.3c0-1.4.8-2.4,2.2-2.4s2.3.8,2.3,2.3Z"></path>
      <path class="cls-2" d="M287.5,78.2c1.4,0,2.3.8,2.3,2.3s-.8,2.3-2.1,2.3c-1.4,0-2.3-.8-2.3-2.3-.2-1.4.6-2.3,2.1-2.3Z"></path>
      <path class="cls-2" d="M342.8,83.2c0,1.1-.4,2.3-1,3.2-.6.9-1.6,1.7-2.6,2.1-1.1.4-2.2.5-3.4.3-1.1-.2-2.1-.8-3-1.6-.8-.8-1.3-1.9-1.6-3-.2-1.1-.1-2.3.4-3.3s1.2-2,2.2-2.6,2.1-1,3.2-.9c.8,0,1.5.2,2.2.5s1.3.7,1.9,1.3c.5.5,1,1.2,1.2,1.9.4.6.5,1.4.5,2.1ZM337,78.3c-.6,0-1.3.1-1.9.4-.6.2-1.1.6-1.6,1.1s-.8,1-1.1,1.6c-.2.6-.4,1.2-.4,1.9,0,.6.1,1.3.4,1.9.2.6.6,1.1,1.1,1.6s1,.8,1.6,1.1c.6.2,1.2.4,1.9.4,1.3,0,2.5-.5,3.5-1.5.9-.9,1.4-2.2,1.4-3.5s-.5-2.5-1.4-3.4c-1-1.1-2.2-1.6-3.5-1.6Z"></path>
      <path class="cls-2" d="M338.2,83.7c.2-.2.4-.3.6-.5.3-.3.5-.6.5-1,.1-.4.1-.8-.1-1.1-.1-.4-.3-.7-.6-.9-.3-.2-.7-.3-1-.3-.7-.1-1.5-.1-2.2-.1-.3,0-.6.1-.6.5v5.9c0,.5.3.5.7.5s.6-.1.6-.5v-1.4c0-.3-.1-.7.3-.8.2-.1.3,0,.5,0,.2.1.3.2.4.4.3.5.6,1.1.9,1.6q.5.8,1.7.5l-1.7-2.8ZM336.7,82.9h-.2c-.2,0-.4-.1-.4-.3v-1.3c0-.1,0-.2.1-.3.1-.1.3-.1.6-.1.9,0,1.4.4,1.3,1-.1.6-.6,1-1.4,1Z"></path>
      <path class="cls-2" d="M356.5,67.3v2.9c0,.1,0,.3-.1.4s-.2.2-.3.2c-3.6,1.4-7.2,1.8-10.7-.1-.9-.5-1.7-1.1-2.3-2-.6-.8-1.1-1.7-1.4-2.7-.9-2.9-.8-6.1.2-9,.4-1.1,1-2.1,1.7-2.9.8-.8,1.7-1.5,2.8-1.9,1.1-.4,2.2-.7,3.4-.6,1.2,0,2.3.3,3.3.8,2.8,1.3,4,3.8,4.2,6.7.1,1,0,2,.1,3,0,.5-.2.8-.7.7h-10.4q-1.1,0-1,1.2c.1.5.2,1.1.4,1.6.3.8.8,1.6,1.5,2.1s1.6.8,2.5.8c1.8.2,3.7-.1,5.4-.8.5-.3,1-.4,1.4-.4ZM345.5,59.5c.4.1.7.2,1.1.1h5.4q1.7,0,1.3-1.7c-.5-2.2-2.1-3.3-4.3-3-2.2.3-3.7,2.2-3.5,4.6h0Z"></path>
      <path class="cls-2" d="M284.8,61.7c0,1.7-.3,3.4-.9,5-1.3,3.2-3.7,4.9-7.2,5.1-4.9.3-8.3-2.4-9.2-7.5-.4-2.2-.3-4.4.3-6.5,1.1-4.3,4.5-6.5,9.1-6.2,4.4.3,6.9,3.6,7.6,7.3.3,1,.4,1.9.3,2.8ZM280.7,61.6c0-.8-.1-1.6-.2-2.4-.1-.5-.2-.9-.4-1.3-.3-.8-.8-1.5-1.5-2s-1.6-.7-2.5-.7c-2,0-3.4.9-4,2.7-.9,2.5-.9,5.3,0,7.8.7,1.9,2.1,2.8,4.2,2.8.9,0,1.8-.3,2.5-.8s1.2-1.3,1.5-2.2c.3-1.3.5-2.6.4-3.9h0Z"></path>
      <path class="cls-2" d="M301.4,69.2c-1,1.3-2.5,2.2-4.2,2.5-1.4.2-2.8.1-4.1-.2-.8-.2-1.6-.7-2.2-1.3-.6-.6-1.1-1.4-1.3-2.2-.3-1-.5-1.9-.5-3v-12q0-1.1,1.1-1.1h.9c.6.1,1.5-.3,1.9.2s.1,1.3.1,1.9v9.3c0,.6,0,1.2.1,1.7.3,2.4,1.6,3.5,4,3.3,1.9-.2,3.1-1.1,3.7-3,.3-1.1.5-2.3.5-3.5v-8.9q0-1,1-1h2.3c.6,0,.8.2.7.8v17.7q0,1.1-1.1,1.1c-.6,0-1.4.2-1.9-.1-.5-.4-.4-1.2-.6-1.8-.1-.2-.1-.3-.4-.4Z"></path>
      <path class="cls-2" d="M250.9,67c.8.3,1.4.6,2,.8,1.8.7,3.8.9,5.8.6,1.3-.3,1.9-1.1,1.8-2.3,0-.3-.1-.6-.3-.9-.2-.3-.4-.5-.7-.6-.8-.6-1.7-1-2.6-1.4-1.2-.5-2.4-1.1-3.5-1.7-1-.6-1.7-1.4-2.2-2.5-.4-1-.5-2.2-.2-3.3.5-2,1.9-3.1,3.8-3.6,2.4-.7,5-.6,7.4.2q2,.6,1.2,2.6c0,.1-.1.2-.1.3-.4,1-.4,1.1-1.4.7-1.5-.7-3.2-1-4.8-.9-.4,0-.8.1-1.2.3-.2.1-.5.3-.6.5-.2.2-.3.4-.3.7-.1.3,0,.5,0,.8s.2.5.4.7c.4.4.9.7,1.4,1,1.5.8,3.1,1.3,4.6,2.1,3,1.6,3.4,3.7,3,6.3-.1.8-.5,1.5-.9,2.2-.5.6-1.1,1.1-1.8,1.5-.9.4-1.9.7-2.9.8-2.3.3-4.6.1-6.7-.6q-1-.4-1-1.5l-.2-2.8Z"></path>
      <path class="cls-2" d="M337.9,67.1c.1,1.1.1,2.2.1,3.2,0,.4-.3.5-.6.6-.9.5-1.9.8-3,.8-1.4.2-2.8.1-4.1-.2-1.1-.2-2.1-.7-3-1.4-.9-.7-1.5-1.6-1.9-2.6-.8-1.8-1.2-3.8-1.2-5.7,0-2,.4-3.9,1.2-5.7.4-1,1-1.9,1.8-2.6.8-.7,1.8-1.2,2.8-1.5,2.5-.7,5.2-.6,7.6.4q.8.3.6,1.2c-.2.7-.5,1.4-.7,2.1-.1.4-.4.5-.8.3-.6-.2-1.3-.5-2-.6-.8-.2-1.7-.3-2.5-.1-.6.1-1.2.3-1.7.7s-.9.8-1.2,1.4c-.3.6-.5,1.2-.6,1.8-.4,1.9-.3,3.8.1,5.6.6,2.5,2.1,3.6,4.7,3.5,1.2,0,2.4-.3,3.5-.8.2-.2.6-.3.9-.4Z"></path>
      <path class="cls-2" d="M314.5,55.2c.4-.5.7-1,1.1-1.4.7-.8,1.6-1.5,2.6-1.9s2.1-.5,3.2-.3c.5.1.7.3.7.8-.1.9-.2,1.8-.3,2.6,0,.5-.3.6-.7.5-.2,0-.5-.1-.7-.1-1.3-.1-2.6.2-3.6,1s-1.7,2-1.9,3.3c-.1.6-.1,1.3-.1,2v8.8q0,.9-.9.9h-2.2q-.9,0-.9-1v-17.3q0-1.2,1.1-1.1c2.5,0,1.9-.4,2.3,2,0,.4.1.9.3,1.2Z"></path>
      <path class="cls-2" d="M225.8,54c.2-.1.3-.2.4-.3,1.6-2.7,6.1-3.1,8.7-1.9,2,1,3,2.7,3.3,4.8.1.7.2,1.5.2,2.2v11.7q0,1-1,1h-4.6q-1,0-1-1v-9.7c0-.8-.1-1.6-.3-2.4-.2-.8-.6-1.5-1.6-1.7-.5-.1-.9-.1-1.4.1-.4.2-.8.5-1.1.8-.4.7-.7,1.5-.8,2.3-.1,1.1-.2,2.2-.2,3.3v7.3q0,1-1,1h-4.4q-1.1,0-1.1-1.1v-18.1c0-.5.2-.8.7-.7h3.9c.1,0,.2.1.3.1.1.1.2.1.2.2.1.1.1.2.1.3.2.6.4,1.2.7,1.8Z"></path>
      <path class="cls-2" d="M215.1,65.4v4.6c0,.5-.3.6-.6.7-.8.4-1.6.7-2.5.8-2,.4-4.1.4-6.1.2-4.2-.6-6.8-3.2-7.5-7.3-.4-2-.3-4.1.1-6.1.9-4.2,3.5-6.6,7.8-7.1,1.5-.2,3.1,0,4.6.4,3.1.9,5.2,3.6,5.5,7.3.1,1.3,0,2.5.1,3.8,0,.6-.2.8-.7.7h-9.8c-1,0-1.2.2-.8,1.1.5,1.5,1.7,2.1,3.2,2.3,1.8.2,3.7-.1,5.4-.8l1.3-.6ZM207.6,59h2.2c.5,0,.6-.2.5-.6-.1-.7-.4-1.3-.8-1.7-.5-.4-1.1-.7-1.8-.7s-1.3.3-1.8.7c-.5.5-.8,1.1-.8,1.8,0,.4.1.5.5.5h2Z"></path>
      <path class="cls-2" d="M183.4,54c.5-.2.6-.5.8-.7.6-.7,1.3-1.3,2.1-1.6.8-.4,1.7-.5,2.6-.5s1.8.3,2.6.8c.8.4,1.4,1.1,1.9,1.8.9,1.3,1.5,2.9,1.7,4.5.4,3.1.5,6.2-.8,9.2-.2.5-.4,1-.7,1.4-2.3,4-7.4,3.7-9.5,1.3-.1-.2-.3-.4-.5-.4-.1,0-.2.1-.2.2.4,3.1.2,6.2.2,9.3,0,.9,0,1-1,1h-4.8c-.6,0-.8-.2-.8-.8v-27.3c0-.4.2-.6.6-.6h4.3c.2,0,.3,0,.4.1.1.1.2.2.2.4.4.6.7,1.2.9,1.9ZM188.6,61.4c0-1.1,0-2.2-.4-3.3-.1-.4-.4-.8-.8-1.1-.4-.3-.8-.4-1.2-.4s-.9.1-1.3.3c-.4.3-.6.6-.8,1.1-.7,2.2-.7,4.5,0,6.7.1.5.4.9.9,1.2.4.3.9.4,1.4.3.9-.1,1.5-.6,1.8-1.8.4-1,.5-2,.4-3h0Z"></path>
      <path class="cls-2" d="M154.7,61.8c-.1-1.8.2-3.5.8-5.2.4-1.2,1.2-2.3,2.2-3.2s2.2-1.5,3.4-1.8c2.2-.6,4.6-.5,6.8.3,3.1,1.2,4.7,3.7,5.3,6.9.6,2.5.4,5.2-.6,7.6-1.3,3.4-3.9,5.2-7.6,5.5-2.1.2-4.2-.1-6.1-1.3-2.6-1.6-3.8-4.1-4.2-6.9.1-.8,0-1.5,0-1.9ZM161.4,61.4c.1,1.3.1,2.6.6,3.9.2.4.5.8.9,1s.9.4,1.3.3c.5,0,.9-.1,1.3-.4.4-.3.7-.7.8-1.1.8-2.3.8-4.9.1-7.2-.1-.4-.3-.7-.5-.9-.3-.3-.6-.4-.9-.5-.6-.2-1.2-.1-1.7.1-.5.2-.9.7-1.2,1.2-.6,1.1-.6,2.3-.7,3.6Z"></path>
      <path class="cls-3" d="M75.9,3.4c10.5.1,20.9,2.7,30.2,7.7s17.2,12.1,23.1,20.9c4.3,6.4,7.4,13.5,9.2,21,1.3,5.7,1.9,11.5,1.6,17.3-.3,7.2-1.8,14.4-4.4,21.1-3.9,9.8-9.7,18.3-17.7,25.2-5.1,4.4-10.8,7.9-17.3,10-.8.3-1.6.5-2.5.7-1.3.3-2.3-.1-2.8-1.4-.9-2.3-1.8-4.5-2.7-6.8-2.2-5.7-4.4-11.4-6.7-17.1-1.6-4.1-3.2-8.2-4.8-12.3-.1-.2-.1-.4-.2-.6-.4-1.3,0-2.4,1.3-2.9,1.1-.4,2.1-.9,3.1-1.4,2.8-1.5,5.1-3.6,6.7-6.4,1-1.9,1.7-3.9,2-6,.4-2.9.6-5.8-.1-8.7-.9-4.1-3.2-7.8-6.5-10.4-3-2.5-6.7-4-10.6-4.2-5.7-.3-10.8,1.4-14.9,5.5-3.7,3.7-5.5,8.2-5.4,13.4,0,2.9.6,5.8,1.6,8.5,1.9,4.8,5.3,8.2,10.2,9.8,1.7.6,2.3,1.8,1.6,3.6-3.3,8.1-6.6,16.2-9.9,24.3-1.5,3.7-3,7.5-4.6,11.2-.7,1.8-1.5,2.2-3.4,1.7-3.3-.9-6.6-2.3-9.6-4-7.5-4.2-13.6-9.9-18.7-16.7-5.4-7.2-9.2-15.4-11.2-24.2-3.5-15.9-1.1-32.6,7.1-46.8,8.2-14.1,21.5-24.6,37.1-29.3,6.2-1.9,12.7-2.8,19.2-2.7ZM135.7,67.6c0-1.5,0-3-.1-4.5-.2-2.2-.4-4.3-.8-6.5-.7-3.6-1.7-7.1-3-10.6-1.5-3.9-3.5-7.7-5.8-11.2-1.8-2.7-3.7-5.3-5.9-7.6-2.3-2.5-4.9-4.9-7.6-7-2.1-1.6-4.3-3.1-6.5-4.4-3.1-1.8-6.4-3.4-9.9-4.6-3.4-1.2-6.9-2.1-10.4-2.7-2.8-.5-5.6-.8-8.4-.8-2.4-.1-4.8,0-7.2.2-2,.2-4,.5-6,.8-4.2.8-8.4,2-12.3,3.7-2.5,1-4.8,2.2-7.1,3.6-3.7,2.2-7.2,4.8-10.3,7.7-1.9,1.7-3.6,3.6-5.2,5.6-2.4,2.9-4.5,6-6.3,9.3-2.6,4.7-4.5,9.7-5.8,14.9-1,4.2-1.5,8.4-1.7,12.7,0,2.1,0,4.2.2,6.4.2,2.2.5,4.4.9,6.6,1,5,2.6,9.9,4.8,14.6,1,2.2,2.2,4.3,3.5,6.4,1.8,2.9,3.9,5.7,6.2,8.2,1.2,1.3,2.4,2.6,3.8,3.8,1.2,1.1,2.4,2.1,3.6,3.1,3.1,2.4,6.4,4.4,10,6,1.1.5,2.2.9,3.3,1.3.4.1.6,0,.7-.3.2-.6.5-1.3.7-1.9,1.8-4.5,3.6-8.9,5.5-13.4,1.4-3.5,2.9-7,4.3-10.5.8-2,1.6-4.1,2.5-6.1.1-.3.1-.5-.2-.6-.6-.2-1.1-.5-1.6-.8-3.5-2-6.4-4.9-8.2-8.5-1.8-3.4-2.6-7-2.8-10.8-.1-1.6-.1-3.2.1-4.8.2-2.1.8-4.2,1.7-6.1,1.3-2.9,3.2-5.5,5.5-7.7,2.1-1.9,4.5-3.4,7.2-4.5,2-.8,4.1-1.3,6.3-1.5,2.6-.3,5.1-.1,7.6.4,3.5.8,6.8,2.5,9.6,4.8,2.8,2.3,5,5.3,6.4,8.6,1,2.3,1.6,4.7,1.8,7.2.2,3.3-.2,6.7-1,9.9-.8,3.1-2.4,6-4.7,8.4-1.8,1.9-4,3.5-6.4,4.7q-.8.4-.5,1.2v.1l4.4,11.4c1.7,4.3,3.4,8.6,5.1,13,.9,2.4,1.9,4.9,2.8,7.3q.3.7,1,.4h.1c2.6-.9,5.2-2,7.6-3.4,3.6-2,6.9-4.5,9.8-7.3,2-1.9,3.9-4,5.7-6.2,2.4-3,4.4-6.2,6.2-9.5,2.4-4.6,4.2-9.5,5.4-14.6.6-2.6,1-5.3,1.3-8,.1-2.1.1-4,.1-5.9Z"></path>
      <path class="cls-1" d="M135.7,67.6c.1,1.9,0,3.8-.2,5.7-.3,2.7-.7,5.4-1.3,8-1.2,5.1-3,10-5.4,14.6-1.8,3.4-3.8,6.5-6.2,9.5-1.7,2.2-3.6,4.3-5.7,6.2-3,2.8-6.3,5.3-9.8,7.3-2.4,1.4-5,2.5-7.6,3.4h-.1q-.7.2-1-.4c-.9-2.4-1.9-4.9-2.8-7.3-1.7-4.3-3.4-8.6-5.1-13l-4.4-11.4v-.1q-.3-.8.5-1.2c2.4-1.2,4.6-2.7,6.4-4.7,2.2-2.4,3.8-5.2,4.7-8.4.9-3.2,1.2-6.6,1-9.9-.2-2.5-.8-4.9-1.8-7.2-1.1-2.6-2.7-5-4.8-7.1-3.1-3.1-7-5.3-11.3-6.4-2.5-.6-5.1-.7-7.6-.4-2.1.2-4.2.7-6.3,1.5-2.7,1-5.1,2.5-7.2,4.5-2.4,2.1-4.3,4.7-5.5,7.7-.9,1.9-1.4,4-1.7,6.1-.2,1.6-.2,3.2-.1,4.8.2,3.8,1.1,7.4,2.8,10.8,1.8,3.6,4.7,6.5,8.2,8.5.5.3,1.1.6,1.6.8.3.1.4.3.2.6-.8,2-1.7,4.1-2.5,6.1-1.4,3.5-2.8,7-4.3,10.5-1.8,4.5-3.6,8.9-5.5,13.4-.3.6-.5,1.3-.7,1.9-.1.4-.3.5-.7.3-1.1-.4-2.2-.8-3.3-1.3-3.6-1.6-6.9-3.6-10-6-1.2-1-2.4-2-3.6-3.1-1.3-1.2-2.6-2.5-3.8-3.8-2.3-2.6-4.4-5.3-6.2-8.2-1.3-2-2.5-4.2-3.5-6.4-2.2-4.6-3.9-9.5-4.8-14.6-.4-2.2-.7-4.4-.9-6.6-.2-2.1-.3-4.2-.2-6.4.1-4.3.7-8.5,1.7-12.7,1.2-5.2,3.2-10.2,5.8-14.9,1.8-3.3,3.9-6.4,6.3-9.3,1.6-2,3.4-3.9,5.3-5.6,3.2-2.9,6.6-5.5,10.3-7.7,2.3-1.4,4.7-2.6,7.1-3.6,4-1.7,8.1-2.9,12.3-3.7,2-.4,4-.6,6-.8,2.4-.2,4.8-.3,7.2-.2,2.8.1,5.6.3,8.4.8,3.5.6,7,1.5,10.4,2.7s6.7,2.8,9.9,4.6c2.3,1.3,4.5,2.8,6.5,4.4,2.7,2.1,5.3,4.4,7.6,7,2.2,2.4,4.2,4.9,5.9,7.6,2.3,3.5,4.2,7.3,5.8,11.2,1.3,3.4,2.3,7,3,10.6.4,2.1.7,4.3.8,6.5.1,1.8.1,3.3.2,4.8Z"></path>
    </g>
  </g>
</svg>
