<?xml version="1.0" encoding="utf-8"?>
<svg version="1.1" id="Layer_1" xmlns="http://www.w3.org/2000/svg" xmlns:xlink="http://www.w3.org/1999/xlink" x="0px" y="0px"
	 width="44px" height="44px" viewBox="0 0 44 44" enable-background="new 0 0 44 44" xml:space="preserve">
<path fill="#414042" d="M19.2568,28.5067c2.0558,0,4.0528-0.686,5.6746-1.9494l6.1188,6.1197
	c0.457,0.4415,1.1854,0.4288,1.6268-0.0283c0.4307-0.446,0.4307-1.153,0-1.5989l-6.1187-6.1196
	c3.1346-4.0357,2.4047-9.8488-1.6304-12.9839c-4.0351-3.13513-9.8473-2.40507-12.9819,1.6306
	c-3.13463,4.0358-2.40469,9.8488,1.6304,12.9839C15.2009,27.823,17.1997,28.5077,19.2568,28.5067z M14.3405,14.3376
	c2.7152-2.7158,7.1175-2.7158,9.8328-0.0001c2.7153,2.7156,2.7154,7.1186,0.0001,9.8343c-2.7152,2.7157-7.1175,2.7158-9.8328,0.0001
	c-0.0001,0-0.0001,0-0.0001-0.0001c-2.7153-2.6959-2.7313-7.0828-0.0358-9.7985C14.3166,14.3614,14.3285,14.3495,14.3405,14.3376z"
	/>
</svg>
